<?xml version="1.0" encoding="UTF-8"?>
<!--Generator: Apple Native CoreSVG 341-->
<!DOCTYPE svg
PUBLIC "-//W3C//DTD SVG 1.1//EN"
       "http://www.w3.org/Graphics/SVG/1.1/DTD/svg11.dtd">
<svg version="1.1" xmlns="http://www.w3.org/2000/svg" xmlns:xlink="http://www.w3.org/1999/xlink" viewBox="0 0 899.902 916.504">
 <g>
  <rect height="916.504" opacity="0" width="899.902" x="0" y="0"/>
  <path d="M199.219 65.4297C217.285 65.4297 231.445 50.7812 231.445 32.7148C231.445 15.1367 217.285 0.488281 199.219 0.488281C181.641 0.488281 166.992 15.1367 166.992 32.7148C166.992 50.7812 181.641 65.4297 199.219 65.4297ZM366.211 65.4297C384.277 65.4297 398.438 50.7812 398.438 32.7148C398.438 15.1367 384.277 0.488281 366.211 0.488281C348.633 0.488281 333.984 15.1367 333.984 32.7148C333.984 50.7812 348.633 65.4297 366.211 65.4297ZM533.203 65.4297C551.27 65.4297 565.918 50.7812 565.918 32.7148C565.918 15.1367 551.27 0.488281 533.203 0.488281C515.625 0.488281 500.977 15.1367 500.977 32.7148C500.977 50.7812 515.625 65.4297 533.203 65.4297ZM700.195 65.4297C718.262 65.4297 732.91 50.7812 732.91 32.7148C732.91 15.1367 718.262 0.488281 700.195 0.488281C682.617 0.488281 667.969 15.1367 667.969 32.7148C667.969 50.7812 682.617 65.4297 700.195 65.4297ZM32.2266 235.352C50.293 235.352 64.4531 220.703 64.4531 203.125C64.4531 185.059 50.293 170.898 32.2266 170.898C14.6484 170.898 0 185.059 0 203.125C0 220.703 14.6484 235.352 32.2266 235.352ZM199.219 243.652C222.168 243.652 239.746 225.586 239.746 203.125C239.746 180.664 222.168 162.598 199.219 162.598C176.758 162.598 158.691 180.664 158.691 203.125C158.691 225.586 176.758 243.652 199.219 243.652ZM366.211 254.395C394.531 254.395 417.969 230.957 417.969 203.125C417.969 174.805 394.531 151.367 366.211 151.367C338.379 151.367 314.941 174.805 314.941 203.125C314.941 230.957 338.379 254.395 366.211 254.395ZM533.203 254.395C561.523 254.395 584.961 230.957 584.961 203.125C584.961 174.805 561.523 151.367 533.203 151.367C505.371 151.367 481.934 174.805 481.934 203.125C481.934 230.957 505.371 254.395 533.203 254.395ZM700.195 243.652C723.145 243.652 741.211 225.586 741.211 203.125C741.211 180.664 723.145 162.598 700.195 162.598C677.734 162.598 659.668 180.664 659.668 203.125C659.668 225.586 677.734 243.652 700.195 243.652ZM867.676 235.352C885.254 235.352 899.902 220.703 899.902 203.125C899.902 185.059 885.254 170.898 867.676 170.898C849.609 170.898 834.961 185.059 834.961 203.125C834.961 220.703 849.609 235.352 867.676 235.352ZM32.2266 405.762C50.293 405.762 64.4531 391.602 64.4531 373.535C64.4531 355.469 50.293 340.82 32.2266 340.82C14.6484 340.82 0 355.469 0 373.535C0 391.602 14.6484 405.762 32.2266 405.762ZM199.219 424.805C227.539 424.805 250.977 401.367 250.977 373.047C250.977 345.215 227.539 321.777 199.219 321.777C171.387 321.777 147.949 345.215 147.949 373.047C147.949 401.367 171.387 424.805 199.219 424.805ZM700.195 424.805C728.516 424.805 751.953 401.367 751.953 373.047C751.953 345.215 728.516 321.777 700.195 321.777C672.363 321.777 648.926 345.215 648.926 373.047C648.926 401.367 672.363 424.805 700.195 424.805ZM867.676 405.762C885.254 405.762 899.902 391.602 899.902 373.535C899.902 355.469 885.254 340.82 867.676 340.82C849.609 340.82 834.961 355.469 834.961 373.535C834.961 391.602 849.609 405.762 867.676 405.762ZM32.2266 575.684C50.293 575.684 64.4531 561.035 64.4531 543.457C64.4531 525.391 50.293 511.23 32.2266 511.23C14.6484 511.23 0 525.391 0 543.457C0 561.035 14.6484 575.684 32.2266 575.684ZM199.219 595.215C227.539 595.215 250.977 571.777 250.977 543.945C250.977 515.625 227.539 492.188 199.219 492.188C171.387 492.188 147.949 515.625 147.949 543.945C147.949 571.777 171.387 595.215 199.219 595.215ZM700.195 595.215C728.516 595.215 751.953 571.777 751.953 543.945C751.953 515.625 728.516 492.188 700.195 492.188C672.363 492.188 648.926 515.625 648.926 543.945C648.926 571.777 672.363 595.215 700.195 595.215ZM867.676 575.684C885.254 575.684 899.902 561.035 899.902 543.457C899.902 525.391 885.254 511.23 867.676 511.23C849.609 511.23 834.961 525.391 834.961 543.457C834.961 561.035 849.609 575.684 867.676 575.684ZM32.2266 746.094C50.293 746.094 64.4531 731.934 64.4531 713.867C64.4531 695.801 50.293 681.641 32.2266 681.641C14.6484 681.641 0 695.801 0 713.867C0 731.934 14.6484 746.094 32.2266 746.094ZM199.219 754.395C222.168 754.395 239.746 736.328 239.746 713.867C239.746 691.406 222.168 673.34 199.219 673.34C176.758 673.34 158.691 691.406 158.691 713.867C158.691 736.328 176.758 754.395 199.219 754.395ZM366.211 765.625C394.531 765.625 417.969 742.188 417.969 713.867C417.969 685.547 394.531 662.109 366.211 662.109C338.379 662.109 314.941 685.547 314.941 713.867C314.941 742.188 338.379 765.625 366.211 765.625ZM533.203 765.625C561.523 765.625 584.961 742.188 584.961 713.867C584.961 685.547 561.523 662.109 533.203 662.109C505.371 662.109 481.934 685.547 481.934 713.867C481.934 742.188 505.371 765.625 533.203 765.625ZM700.195 754.395C723.145 754.395 741.211 736.328 741.211 713.867C741.211 691.406 723.145 673.34 700.195 673.34C677.734 673.34 659.668 691.406 659.668 713.867C659.668 736.328 677.734 754.395 700.195 754.395ZM867.676 746.094C885.254 746.094 899.902 731.934 899.902 713.867C899.902 695.801 885.254 681.641 867.676 681.641C849.609 681.641 834.961 695.801 834.961 713.867C834.961 731.934 849.609 746.094 867.676 746.094ZM199.219 916.504C217.285 916.504 231.445 901.855 231.445 883.789C231.445 866.211 217.285 851.562 199.219 851.562C181.641 851.562 166.992 866.211 166.992 883.789C166.992 901.855 181.641 916.504 199.219 916.504ZM366.211 916.504C384.277 916.504 398.438 901.855 398.438 883.789C398.438 866.211 384.277 851.562 366.211 851.562C348.633 851.562 333.984 866.211 333.984 883.789C333.984 901.855 348.633 916.504 366.211 916.504ZM533.203 916.504C551.27 916.504 565.918 901.855 565.918 883.789C565.918 866.211 551.27 851.562 533.203 851.562C515.625 851.562 500.977 866.211 500.977 883.789C500.977 901.855 515.625 916.504 533.203 916.504ZM700.195 916.504C718.262 916.504 732.91 901.855 732.91 883.789C732.91 866.211 718.262 851.562 700.195 851.562C682.617 851.562 667.969 866.211 667.969 883.789C667.969 901.855 682.617 916.504 700.195 916.504ZM366.211 424.805C394.531 424.805 417.969 401.367 417.969 373.047C417.969 345.215 394.531 321.777 366.211 321.777C338.379 321.777 314.941 345.215 314.941 373.047C314.941 401.367 338.379 424.805 366.211 424.805ZM533.203 424.805C561.523 424.805 584.961 401.367 584.961 373.047C584.961 345.215 561.523 321.777 533.203 321.777C505.371 321.777 481.934 345.215 481.934 373.047C481.934 401.367 505.371 424.805 533.203 424.805ZM366.211 595.215C394.531 595.215 417.969 571.777 417.969 543.945C417.969 515.625 394.531 492.188 366.211 492.188C338.379 492.188 314.941 515.625 314.941 543.945C314.941 571.777 338.379 595.215 366.211 595.215ZM533.203 595.215C561.523 595.215 584.961 571.777 584.961 543.945C584.961 515.625 561.523 492.188 533.203 492.188C505.371 492.188 481.934 515.625 481.934 543.945C481.934 571.777 505.371 595.215 533.203 595.215Z" fill="white" fill-opacity="0.85"/>
 </g>
</svg>
