<svg width="25" height="25" viewBox="0 0 25 25" fill="none" xmlns="http://www.w3.org/2000/svg">
<rect width="25" height="25" fill="white"/>
<g clip-path="url(#clip0_1_23)">
<path d="M16.4053 8.95941C16.5569 8.95941 16.6761 8.85293 16.7086 8.6932C17.1853 6.29731 17.5102 5.77556 20.0343 5.41351C20.2076 5.3922 20.316 5.26443 20.316 5.11535C20.316 4.94499 20.2076 4.81719 20.0343 4.79591C17.5102 4.43385 17.0769 3.85885 16.7086 1.53751C16.6761 1.35648 16.5569 1.25 16.4053 1.25C16.2319 1.25 16.1128 1.35648 16.0803 1.52686C15.6036 3.90144 15.2786 4.43385 12.7654 4.79591C12.5812 4.81719 12.4729 4.94499 12.4729 5.11535C12.4729 5.26443 12.5812 5.38156 12.7654 5.41351C15.2786 5.77556 15.7011 6.29731 16.0803 8.68254C16.102 8.85293 16.2103 8.95941 16.4053 8.95941ZM4.32656 17.691C4.48905 17.691 4.59738 17.5846 4.61903 17.4355C4.94403 15.4336 4.94403 15.2845 7.15394 14.9438C7.30561 14.9225 7.41394 14.8267 7.41394 14.6669C7.41394 14.5072 7.30561 14.4114 7.15394 14.3901C4.94403 14.0493 4.94403 13.9002 4.61903 11.8983C4.59738 11.7493 4.48905 11.6428 4.32656 11.6428C4.17489 11.6428 4.06656 11.7493 4.04491 11.8983C3.71991 13.9002 3.71991 14.0493 1.50999 14.3901C1.35833 14.4114 1.25 14.5072 1.25 14.6669C1.25 14.8267 1.35833 14.9225 1.50999 14.9438C3.71991 15.2845 3.71991 15.4336 4.04491 17.4355C4.06656 17.5846 4.17489 17.691 4.32656 17.691ZM7.94476 20.6939C8.07474 20.6939 8.1614 20.5981 8.1939 20.4703C8.3889 19.2883 8.33474 19.2351 9.71053 18.9902C9.84052 18.9582 9.92717 18.8624 9.92717 18.7452C9.92717 18.6281 9.84052 18.5216 9.71053 18.5003C8.34557 18.2554 8.41057 18.2235 8.1939 17.0096C8.1614 16.8924 8.06392 16.7966 7.94476 16.7966C7.81475 16.7966 7.72809 16.8924 7.69559 17.0309C7.43561 18.2235 7.54393 18.2874 6.18981 18.5003C6.049 18.5216 5.96232 18.6175 5.96232 18.7452C5.96232 18.8624 6.049 18.9582 6.17899 18.9902C7.54393 19.2351 7.43561 19.2883 7.69559 20.4703C7.72809 20.5981 7.81475 20.6939 7.94476 20.6939Z" fill="black" fill-opacity="0.85"/>
<path d="M20.4243 21.8865C20.9009 22.3657 21.6918 22.355 22.1467 21.8865C22.6126 21.4073 22.6126 20.6832 22.1359 20.1934L8.29141 6.58482C7.81475 6.10564 7.02395 6.10564 6.56897 6.58482C6.10315 7.064 6.10315 7.78809 6.57979 8.26725L20.4243 21.8865ZM11.043 11.5044L7.31645 7.83068C7.16479 7.6816 7.16479 7.45798 7.31645 7.30891C7.45727 7.17047 7.69559 7.15983 7.84725 7.30891L11.5846 10.9932L11.043 11.5044Z" fill="black" fill-opacity="0.85"/>
</g>
<defs>
<clipPath id="clip0_1_23">
<rect width="22.5" height="22.5" fill="white" transform="translate(1.25 1.25)"/>
</clipPath>
</defs>
</svg>
